<?xml version="1.0" encoding="UTF-8" standalone="no"?><svg width="232" height="58" viewBox="0 0 232 58" fill="none" xmlns="http://www.w3.org/2000/svg">
<path d="M16.5098 57V16.104H0.38175V6.6H44.3018V16.104H28.1738V57H16.5098ZM49.7856 57V18.264H61.0176V57H49.7856ZM55.4016 12.864C53.3376 12.864 51.6576 12.264 50.3616 11.064C49.0656 9.864 48.4176 8.376 48.4176 6.6C48.4176 4.824 49.0656 3.336 50.3616 2.136C51.6576 0.935997 53.3376 0.335996 55.4016 0.335996C57.4656 0.335996 59.1456 0.911997 60.4416 2.064C61.7376 3.168 62.3856 4.608 62.3856 6.384C62.3856 8.256 61.7376 9.816 60.4416 11.064C59.1936 12.264 57.5136 12.864 55.4016 12.864ZM71.4418 57V3.576H82.6738V57H71.4418ZM115.994 57.576C112.586 57.576 109.658 56.856 107.21 55.416C104.762 53.976 102.89 51.792 101.594 48.864C100.298 45.888 99.6501 42.144 99.6501 37.632C99.6501 33.072 100.322 29.328 101.666 26.4C103.058 23.472 104.978 21.288 107.426 19.848C109.874 18.408 112.73 17.688 115.994 17.688C119.642 17.688 122.906 18.504 125.786 20.136C128.714 21.768 131.018 24.072 132.698 27.048C134.426 30.024 135.29 33.552 135.29 37.632C135.29 41.664 134.426 45.168 132.698 48.144C131.018 51.12 128.714 53.448 125.786 55.128C122.906 56.76 119.642 57.576 115.994 57.576ZM93.0981 57V3.576H104.33V26.112L103.61 37.56L103.826 49.08V57H93.0981ZM114.05 48.36C115.922 48.36 117.578 47.928 119.018 47.064C120.506 46.2 121.682 44.976 122.546 43.392C123.458 41.76 123.914 39.84 123.914 37.632C123.914 35.376 123.458 33.456 122.546 31.872C121.682 30.288 120.506 29.064 119.018 28.2C117.578 27.336 115.922 26.904 114.05 26.904C112.178 26.904 110.498 27.336 109.01 28.2C107.522 29.064 106.346 30.288 105.482 31.872C104.618 33.456 104.186 35.376 104.186 37.632C104.186 39.84 104.618 41.76 105.482 43.392C106.346 44.976 107.522 46.2 109.01 47.064C110.498 47.928 112.178 48.36 114.05 48.36ZM159.153 57.576C155.937 57.576 153.057 56.952 150.513 55.704C148.017 54.456 146.073 52.56 144.681 50.016C143.289 47.424 142.593 44.136 142.593 40.152V18.264H153.825V38.496C153.825 41.712 154.497 44.088 155.841 45.624C157.233 47.112 159.177 47.856 161.673 47.856C163.401 47.856 164.937 47.496 166.281 46.776C167.625 46.008 168.681 44.856 169.449 43.32C170.217 41.736 170.601 39.768 170.601 37.416V18.264H181.833V57H171.177V46.344L173.121 49.44C171.825 52.128 169.905 54.168 167.361 55.56C164.865 56.904 162.129 57.576 159.153 57.576ZM208.871 57.576C205.223 57.576 201.935 56.76 199.007 55.128C196.079 53.448 193.751 51.12 192.023 48.144C190.343 45.168 189.503 41.664 189.503 37.632C189.503 33.552 190.343 30.024 192.023 27.048C193.751 24.072 196.079 21.768 199.007 20.136C201.935 18.504 205.223 17.688 208.871 17.688C212.135 17.688 214.991 18.408 217.439 19.848C219.887 21.288 221.783 23.472 223.127 26.4C224.471 29.328 225.143 33.072 225.143 37.632C225.143 42.144 224.495 45.888 223.199 48.864C221.903 51.792 220.031 53.976 217.583 55.416C215.183 56.856 212.279 57.576 208.871 57.576ZM210.815 48.36C212.639 48.36 214.295 47.928 215.783 47.064C217.271 46.2 218.447 44.976 219.311 43.392C220.223 41.76 220.679 39.84 220.679 37.632C220.679 35.376 220.223 33.456 219.311 31.872C218.447 30.288 217.271 29.064 215.783 28.2C214.295 27.336 212.639 26.904 210.815 26.904C208.943 26.904 207.263 27.336 205.775 28.2C204.287 29.064 203.087 30.288 202.175 31.872C201.311 33.456 200.879 35.376 200.879 37.632C200.879 39.84 201.311 41.76 202.175 43.392C203.087 44.976 204.287 46.2 205.775 47.064C207.263 47.928 208.943 48.36 210.815 48.36ZM220.967 57V49.08L221.183 37.56L220.463 26.112V3.576H231.695V57H220.967Z" fill="#212A38"/>
</svg>
