<svg width="464" height="427" viewBox="0 0 464 427" fill="none" xmlns="http://www.w3.org/2000/svg">
<rect y="124.654" width="327.492" height="218.845" rx="29" transform="rotate(-12.5 0 124.654)" fill="#FFA300"/>
<path d="M89.6912 244.206L80.8397 204.28L65.094 207.77L63.0369 198.492L105.916 188.986L107.973 198.264L92.2272 201.755L101.079 241.682L89.6912 244.206ZM122.178 237.004L113.794 199.186L124.76 196.755L133.144 234.573L122.178 237.004ZM118.108 192.699C116.093 193.146 114.323 192.923 112.798 192.032C111.273 191.141 110.319 189.829 109.934 188.095C109.55 186.361 109.86 184.768 110.866 183.316C111.871 181.864 113.382 180.915 115.397 180.468C117.412 180.021 119.177 180.22 120.691 181.064C122.196 181.861 123.14 183.127 123.524 184.861C123.929 186.688 123.634 188.352 122.639 189.851C121.681 191.292 120.17 192.242 118.108 192.699ZM143.321 232.317L131.758 180.159L142.724 177.728L154.287 229.886L143.321 232.317ZM186.942 223.236C183.615 223.974 180.6 223.905 177.899 223.029C175.197 222.153 172.897 220.426 170.998 217.848C169.088 215.223 167.645 211.708 166.669 207.303C165.682 202.851 165.528 199.05 166.206 195.901C166.931 192.741 168.333 190.193 170.411 188.257C172.49 186.321 175.122 185 178.309 184.294C181.87 183.504 185.233 183.594 188.398 184.564C191.61 185.524 194.358 187.275 196.643 189.817C198.974 192.348 200.581 195.605 201.464 199.589C202.337 203.525 202.252 207.133 201.209 210.413C200.213 213.682 198.467 216.453 195.972 218.727C193.514 220.944 190.504 222.447 186.942 223.236ZM164.464 227.63L152.901 175.472L163.867 173.041L168.744 195.043L170.519 206.375L173.224 217.575L174.938 225.308L164.464 227.63ZM183.049 214.66C184.877 214.254 186.4 213.474 187.619 212.319C188.885 211.153 189.768 209.704 190.269 207.97C190.806 206.18 190.835 204.207 190.358 202.051C189.869 199.848 189.009 198.073 187.775 196.724C186.589 195.364 185.176 194.424 183.536 193.902C181.943 193.37 180.233 193.307 178.405 193.712C176.578 194.117 175.031 194.903 173.765 196.068C172.5 197.234 171.617 198.683 171.116 200.417C170.615 202.15 170.609 204.118 171.097 206.321C171.575 208.476 172.412 210.257 173.609 211.664C174.796 213.023 176.209 213.964 177.848 214.485C179.488 215.007 181.222 215.065 183.049 214.66ZM229.078 213.895C225.938 214.591 222.991 214.605 220.238 213.937C217.531 213.259 215.222 211.829 213.313 209.647C211.393 207.417 210.002 204.358 209.139 200.468L204.402 179.099L215.368 176.668L219.747 196.421C220.443 199.56 221.613 201.735 223.258 202.943C224.939 204.095 226.998 204.4 229.434 203.86C231.121 203.486 232.543 202.802 233.699 201.808C234.845 200.768 235.627 199.414 236.044 197.749C236.451 196.036 236.4 194.031 235.891 191.735L231.746 173.037L242.712 170.606L251.096 208.424L240.692 210.73L238.386 200.327L240.954 202.929C240.27 205.833 238.837 208.241 236.655 210.15C234.509 212.003 231.983 213.251 229.078 213.895ZM277.617 203.134C274.056 203.924 270.669 203.839 267.457 202.879C264.235 201.873 261.458 200.104 259.127 197.572C256.843 195.03 255.264 191.791 254.392 187.855C253.508 183.872 253.565 180.245 254.561 176.976C255.604 173.697 257.378 170.944 259.883 168.717C262.389 166.49 265.422 164.981 268.984 164.192C272.17 163.485 275.115 163.57 277.816 164.446C280.518 165.322 282.842 167.044 284.787 169.612C286.733 172.179 288.2 175.689 289.187 180.141C290.163 184.546 290.341 188.342 289.72 191.528C289.088 194.667 287.733 197.204 285.655 199.14C283.624 201.065 280.944 202.397 277.617 203.134ZM277.52 193.716C279.301 193.321 280.824 192.541 282.09 191.375C283.356 190.21 284.239 188.76 284.74 187.027C285.277 185.236 285.306 183.263 284.829 181.107C284.34 178.905 283.479 177.129 282.246 175.78C281.06 174.42 279.647 173.48 278.007 172.958C276.367 172.437 274.657 172.374 272.876 172.768C271.049 173.174 269.502 173.959 268.236 175.125C266.971 176.29 266.064 177.745 265.516 179.489C265.016 181.222 265.01 183.19 265.498 185.393C265.976 187.548 266.813 189.329 268.01 190.736C269.243 192.085 270.68 193.02 272.319 193.541C273.959 194.063 275.693 194.121 277.52 193.716ZM289.302 199.954L287.588 192.222L285.305 180.928L282.124 169.907L277.247 147.905L288.212 145.474L299.775 197.632L289.302 199.954Z" fill="white"/>
<rect x="77.6812" y="271.451" width="327.492" height="218.845" rx="29" transform="rotate(-45 77.6812 271.451)" fill="#FED700"/>
<path d="M217.807 323.143L188.889 294.225L177.485 305.629L170.764 298.909L201.821 267.853L208.541 274.573L197.137 285.977L226.055 314.895L217.807 323.143ZM241.336 299.613L213.946 272.223L221.888 264.281L249.279 291.671L241.336 299.613ZM214.099 264.433C212.639 265.893 211.027 266.657 209.262 266.725C207.497 266.792 205.987 266.198 204.731 264.943C203.475 263.687 202.881 262.176 202.949 260.411C203.017 258.647 203.781 257.034 205.24 255.575C206.699 254.115 208.295 253.335 210.026 253.233C211.723 253.097 213.199 253.657 214.455 254.913C215.779 256.237 216.424 257.798 216.39 259.597C216.356 261.328 215.592 262.94 214.099 264.433ZM256.65 284.3L218.873 246.524L226.815 238.581L264.592 276.358L256.65 284.3ZM288.56 253.204C286.15 255.614 283.571 257.175 280.822 257.888C278.072 258.601 275.204 258.38 272.218 257.226C269.197 256.038 266.091 253.849 262.901 250.659C259.676 247.434 257.504 244.312 256.384 241.291C255.298 238.236 255.111 235.334 255.824 232.585C256.537 229.836 258.047 227.307 260.355 224.999C262.935 222.42 265.82 220.689 269.01 219.806C272.234 218.89 275.493 218.89 278.785 219.806C282.111 220.689 285.217 222.572 288.102 225.457C290.953 228.308 292.82 231.397 293.702 234.723C294.619 238.016 294.636 241.291 293.753 244.549C292.871 247.74 291.14 250.625 288.56 253.204ZM271.963 268.987L234.186 231.21L242.129 223.268L258.064 239.204L265.65 247.808L273.949 255.801L279.549 261.401L271.963 268.987ZM280.669 248.062C281.993 246.738 282.858 245.262 283.265 243.633C283.707 241.97 283.673 240.273 283.164 238.542C282.654 236.743 281.619 235.063 280.058 233.501C278.463 231.906 276.783 230.871 275.018 230.396C273.287 229.887 271.59 229.853 269.927 230.294C268.297 230.701 266.821 231.567 265.497 232.891C264.173 234.214 263.291 235.708 262.85 237.371C262.409 239.034 262.442 240.731 262.952 242.462C263.461 244.193 264.513 245.856 266.108 247.451C267.669 249.013 269.333 250.065 271.097 250.608C272.828 251.117 274.526 251.151 276.189 250.71C277.852 250.268 279.345 249.386 280.669 248.062ZM319.078 222.686C316.804 224.96 314.326 226.556 311.645 227.472C308.998 228.354 306.282 228.388 303.499 227.574C300.682 226.725 297.865 224.892 295.048 222.075L279.571 206.598L287.513 198.656L301.819 212.962C304.093 215.236 306.248 216.441 308.285 216.577C310.321 216.645 312.222 215.796 313.987 214.031C315.209 212.809 316.04 211.469 316.482 210.009C316.889 208.516 316.821 206.955 316.278 205.325C315.701 203.662 314.581 201.999 312.918 200.336L299.375 186.794L307.318 178.851L334.708 206.242L327.173 213.777L319.638 206.242L323.202 207.056C324.186 209.874 324.271 212.674 323.457 215.457C322.642 218.172 321.183 220.582 319.078 222.686ZM354.234 187.531C351.654 190.11 348.752 191.858 345.528 192.774C342.27 193.657 338.977 193.657 335.651 192.774C332.359 191.858 329.287 189.974 326.436 187.123C323.551 184.238 321.65 181.15 320.734 177.857C319.852 174.531 319.868 171.256 320.785 168.031C321.701 164.807 323.449 161.905 326.029 159.326C328.337 157.018 330.865 155.507 333.615 154.794C336.364 154.082 339.249 154.285 342.27 155.405C345.29 156.525 348.413 158.698 351.637 161.922C354.828 165.112 357.017 168.218 358.205 171.239C359.359 174.226 359.58 177.094 358.867 179.843C358.188 182.558 356.644 185.121 354.234 187.531ZM349.092 179.639C350.382 178.35 351.247 176.873 351.688 175.21C352.13 173.547 352.096 171.85 351.586 170.119C351.077 168.32 350.042 166.64 348.481 165.079C346.886 163.483 345.206 162.448 343.441 161.973C341.71 161.464 340.013 161.43 338.349 161.871C336.686 162.312 335.21 163.178 333.92 164.468C332.596 165.791 331.714 167.285 331.273 168.948C330.831 170.611 330.848 172.325 331.324 174.09C331.833 175.821 332.885 177.484 334.48 179.079C336.041 180.641 337.705 181.693 339.469 182.236C341.234 182.711 342.948 182.728 344.612 182.287C346.275 181.845 347.768 180.963 349.092 179.639ZM362.38 178.57L356.779 172.97L348.786 164.671L340.182 157.085L324.247 141.15L332.189 133.208L369.966 170.984L362.38 178.57Z" fill="white"/>
<circle cx="310.419" cy="91.0215" r="13.9689" fill="white"/>
<path d="M309.3 94.7449C309.3 94.7449 316.652 90.8846 323.068 77.022C335.371 50.4376 333.614 1 333.614 1" stroke="#00C295" stroke-width="7"/>
</svg>
